<svg id="Capa_1" data-name="Capa 1" xmlns="http://www.w3.org/2000/svg" viewBox="0 0 43.1 56"><defs><style>.cls-1{fill:#e9e9e0;}.cls-2{fill:#0e2666;}.cls-3{fill:#d9d7ca;}.cls-4{isolation:isolate;}.cls-5{fill:#fff;}.cls-6{fill:none;stroke:#c8bdb8;stroke-linecap:round;stroke-miterlimit:10;stroke-width:1.91px;}</style></defs><path class="cls-1" d="M30.5,0H1.5C.7,0,0,.7,0,1.89v51.7a1.64,1.64,0,0,0,1.5,1H41.6a1.64,1.64,0,0,0,1.5-1V12.65c0-.7-.1-.9-.3-1.09L31.2.3a1.33,1.33,0,0,0-.7-.3Z"/><path class="cls-2" d="M41.6,56H1.5A1.54,1.54,0,0,1,0,54.5V39H43.1V54.5A1.54,1.54,0,0,1,41.6,56Z"/><polygon class="cls-3" points="31.2 0.3 31.3 11.7 42.9 11.7 31.2 0.3"/><g class="cls-4"><path class="cls-5" d="M11.1,47.3a4.46,4.46,0,0,1-1.3,3.5A5.31,5.31,0,0,1,6.1,52H3.5V42.7H6.4a4.55,4.55,0,0,1,3.4,1.2A4.76,4.76,0,0,1,11.1,47.3Zm-1.6.1c0-2.2-1-3.3-3.1-3.3H5.1v6.7H6.2C8.4,50.8,9.5,49.6,9.5,47.4Z"/><path class="cls-5" d="M21.3,47.4a5.23,5.23,0,0,1-1.1,3.5A4.28,4.28,0,0,1,17,52.2,4.08,4.08,0,0,1,13.8,51a4.76,4.76,0,0,1-1.1-3.5A5.23,5.23,0,0,1,13.8,44,4.22,4.22,0,0,1,17,42.8,4.22,4.22,0,0,1,20.2,44,4.51,4.51,0,0,1,21.3,47.4Zm-7,0A4,4,0,0,0,15,50a2.45,2.45,0,0,0,2.1.9,2.26,2.26,0,0,0,2-.9,4,4,0,0,0,.7-2.6,4,4,0,0,0-.7-2.6,2.38,2.38,0,0,0-2-.9,2.58,2.58,0,0,0-2.1.9A3.85,3.85,0,0,0,14.3,47.4Z"/><path class="cls-5" d="M27.3,43.9a2.58,2.58,0,0,0-2.1.9,4,4,0,0,0-.7,2.6,4,4,0,0,0,.7,2.6,2.58,2.58,0,0,0,2.1.9,3.75,3.75,0,0,0,1.1-.1c.3-.1.8-.2,1.1-.3v1.3a6.57,6.57,0,0,1-2.5.4A3.85,3.85,0,0,1,23.9,51a5.23,5.23,0,0,1-1.1-3.5,6.18,6.18,0,0,1,.5-2.5,5,5,0,0,1,1.5-1.7,4.75,4.75,0,0,1,2.4-.6,5.83,5.83,0,0,1,2.6.6l-.5,1.3a10.37,10.37,0,0,0-1-.4A1.69,1.69,0,0,0,27.3,43.9Z"/><path class="cls-5" d="M38.4,52H36.7l-2.3-3.8L32.1,52H30.5l3.1-4.8-2.9-4.5h1.7l2.1,3.5,2.1-3.5h1.6l-2.9,4.5Z"/></g><line class="cls-6" x1="11.21" y1="15.18" x2="31.89" y2="15.18"/><line class="cls-6" x1="11.21" y1="20.18" x2="31.89" y2="20.18"/><line class="cls-6" x1="11.21" y1="25.1" x2="31.89" y2="25.1"/><line class="cls-6" x1="11.21" y1="30.12" x2="31.89" y2="30.12"/></svg>