<svg id="Capa_1" data-name="Capa 1" xmlns="http://www.w3.org/2000/svg" viewBox="0 0 43.1 56"><defs><style>.cls-1{fill:#e9e9e0;}.cls-2{fill:#29777f;}.cls-3{fill:#d9d7ca;}.cls-4{fill:#938c89;}.cls-5{fill:#c8bdb8;}.cls-6{isolation:isolate;}.cls-7{fill:#fff;}</style></defs><path class="cls-1" d="M30.5,0H1.5C.7,0,0,.7,0,1.9V53.8a1.64,1.64,0,0,0,1.5,1H41.6a1.64,1.64,0,0,0,1.5-1V12.7c0-.7-.1-.9-.3-1.1L31.2.3a1.33,1.33,0,0,0-.7-.3Z"/><path class="cls-2" d="M41.6,56H1.5A1.54,1.54,0,0,1,0,54.5V39H43.1V54.5A1.54,1.54,0,0,1,41.6,56Z"/><polygon class="cls-3" points="31.2 0.3 31.2 11.7 42.9 11.7 31.2 0.3"/><path class="cls-4" d="M22.5,33c-.2.1-.4-.1-.6-.1-3.1-1.5-6.3-3.1-9.4-4.6-.7-.4-.9-.9-.4-1.5,3.2-4,6.57-7.73,9.77-11.63l.63-.77V32.6C22.7,32.6,22.7,32.9,22.5,33Z"/><path class="cls-5" d="M22.5,33V14.4A5.31,5.31,0,0,0,23,15c3.2,4,6.51,7.78,9.81,11.68.4.6.4,1.1-.3,1.4-3.2,1.6-6.3,3.2-9.6,4.8C22.9,33,22.7,33,22.5,33Z"/><path class="cls-5" d="M22.5,33V14.4L23,15"/><g class="cls-6"><path class="cls-7" d="M17.1,47.4a5.44,5.44,0,0,1-1.5,4.1,6.07,6.07,0,0,1-4.2,1.4h-3V42.1h3.3a5.72,5.72,0,0,1,4,1.4A4.93,4.93,0,0,1,17.1,47.4Zm-1.9,0c0-2.6-1.2-3.8-3.6-3.8H10.1v7.8h1.2C13.9,51.3,15.2,50,15.2,47.4Z"/><path class="cls-7" d="M27.3,52.8h-2l-2.7-4.4-2.7,4.4H18l3.6-5.6L18.3,42h1.9l2.5,4,2.5-4h1.9l-3.3,5.2Z"/><path class="cls-7" d="M30.4,52.8H28.7V42.1h6v1.5H30.4v3.3h4v1.5h-4Z"/></g></svg>