<?xml version="1.0" encoding="utf-8"?>
<!-- Generator: Adobe Illustrator 25.0.0, SVG Export Plug-In . SVG Version: 6.00 Build 0)  -->
<svg version="1.1" id="Capa_1" xmlns="http://www.w3.org/2000/svg" xmlns:xlink="http://www.w3.org/1999/xlink" x="0px" y="0px"
	 viewBox="0 0 43.1 56" style="enable-background:new 0 0 43.1 56;" xml:space="preserve">
<style type="text/css">
	.st0{fill:#E9E9E0;}
	.st1{fill:#7EB225;}
	.st2{fill:#D9D7CA;}
	.st3{fill:#FFFFFF;}
	.st4{fill:none;stroke:#C8BDB8;stroke-width:1.09;stroke-miterlimit:10;}
	.st5{fill:none;stroke:#C8BDB8;stroke-width:1.19;stroke-linecap:round;stroke-miterlimit:10;}
</style>
<g>
	<path class="st0" d="M30.5,0h-29C0.7,0,0,0.7,0,1.9v51.7c0.3,0.6,0.8,1,1.5,1h40.1c0.7,0,1.2-0.4,1.5-1v-41c0-0.7-0.1-0.9-0.3-1.1
		L31.2,0.3C31,0.1,30.8,0,30.5,0z"/>
	<path class="st1" d="M41.6,56H1.5C0.7,56,0,55.3,0,54.5V39h43.1v15.5C43.1,55.3,42.4,56,41.6,56z"/>
	<polygon class="st2" points="31.2,0.3 31.3,11.7 42.9,11.7 	"/>
	<g>
		<path class="st3" d="M6.7,51.5H2.5v-8.2h4.2v1.1h-3v2.2h2.8v1.2H3.8v2.6h3V51.5z"/>
		<path class="st3" d="M7.8,49v-1.1h2.6V49H7.8z"/>
		<path class="st3" d="M11.7,43.4h2.2c0.8-0.1,1.5,0.1,2.2,0.5c0.5,0.4,0.8,1,0.7,1.5c0,0.4-0.1,0.9-0.4,1.1c-0.2,0.3-0.6,0.6-1,0.6
			v0.1c0.5,0.1,0.9,0.3,1.1,0.7c0.3,0.4,0.4,0.9,0.4,1.3c0,0.7-0.2,1.2-0.7,1.7c-0.6,0.5-1.2,0.7-1.9,0.7h-2.8L11.7,43.4L11.7,43.4z
			 M12.9,46.7h1.1c0.4,0,0.8-0.1,1.1-0.3c0.3-0.2,0.4-0.6,0.4-1c0-0.3-0.1-0.7-0.4-0.9c-0.4-0.2-0.8-0.3-1.2-0.3h-1L12.9,46.7z
			 M12.9,47.8v2.6h1.3c0.4,0,0.8-0.1,1.1-0.3c0.3-0.3,0.4-0.7,0.4-1s-0.1-0.8-0.4-1c-0.4-0.3-0.9-0.3-1.2-0.3H12.9z"/>
		<path class="st3" d="M25.1,47.5c0.1,1.1-0.3,2.2-1,3c-0.7,0.8-1.6,1.1-2.6,1.1s-1.9-0.4-2.6-1.1c-0.7-0.9-1-2-1-3.1
			c-0.1-1.1,0.3-2.2,1-3.1c0.7-0.8,1.6-1.1,2.6-1c1-0.1,1.9,0.4,2.6,1.1C24.9,45.2,25.2,46.3,25.1,47.5z M19.5,47.5
			c-0.1,0.9,0.2,1.6,0.6,2.4c0.4,0.5,1,0.8,1.6,0.8s1.2-0.3,1.6-0.8c0.5-0.7,0.7-1.5,0.6-2.4c0.1-0.8-0.1-1.6-0.6-2.3
			c-0.4-0.6-1-0.9-1.6-0.8c-0.7,0-1.2,0.3-1.6,0.8C19.6,45.8,19.4,46.6,19.5,47.5z"/>
		<path class="st3" d="M33.3,47.5c0.1,1.1-0.3,2.2-1,3c-0.6,0.8-1.5,1.1-2.5,1.1c-1,0.1-1.9-0.4-2.6-1.1c-0.7-0.9-1-2-0.9-3.1
			c-0.1-1.1,0.3-2.2,1-3.1c0.7-0.8,1.6-1.1,2.6-1c1-0.1,1.9,0.3,2.6,1C33.1,45.2,33.4,46.3,33.3,47.5z M27.7,47.5
			c-0.1,0.8,0.2,1.6,0.6,2.3c0.8,1,2.1,1,3,0.3c0.1-0.1,0.2-0.2,0.3-0.3c0.4-0.7,0.6-1.5,0.6-2.3c0.1-0.9-0.1-1.6-0.6-2.3
			c-0.4-0.6-1-0.9-1.6-0.8c-0.7,0-1.2,0.3-1.6,0.8C27.8,45.8,27.6,46.6,27.7,47.5L27.7,47.5z"/>
		<path class="st3" d="M40.7,51.5h-1.4l-2.4-3.6l-0.8,0.7v3h-1.2v-8.2h1.2v3.9c0.3-0.5,0.7-0.9,1-1.3l2-2.6h1.4
			c-1.3,1.7-2.2,2.9-2.8,3.6L40.7,51.5z"/>
	</g>
	<path class="st4" d="M15.2,13.6h12.5c0.8,0,1.4,0.6,1.4,1.3c0,0,0,0,0,0.1v16.4c0,0.8-0.6,1.4-1.3,1.4c0,0,0,0-0.1,0H15.2
		c-0.8,0-1.4-0.6-1.4-1.3c0,0,0,0,0-0.1V15C13.8,14.2,14.4,13.6,15.2,13.6L15.2,13.6z"/>
	<path class="st4" d="M15.4,29.5h13.7v1.6c0,0.9-0.7,1.7-1.7,1.7l0,0h-12c-0.9,0-1.7-0.7-1.7-1.7l0,0l0,0
		C13.8,30.2,14.5,29.5,15.4,29.5z"/>
	<line class="st4" x1="16.9" y1="13.6" x2="16.9" y2="29.5"/>
	<line class="st5" x1="20.9" y1="17.9" x2="26" y2="17.9"/>
	<line class="st5" x1="20.9" y1="20.1" x2="26" y2="20.1"/>
</g>
</svg>
