<?xml version="1.0" encoding="utf-8"?>
<!-- Generator: Adobe Illustrator 25.0.0, SVG Export Plug-In . SVG Version: 6.00 Build 0)  -->
<svg version="1.1" id="Capa_1" xmlns="http://www.w3.org/2000/svg" xmlns:xlink="http://www.w3.org/1999/xlink" x="0px" y="0px"
	 viewBox="0 0 43.1 56" style="enable-background:new 0 0 43.1 56;" xml:space="preserve">
<style type="text/css">
	.st0{fill:#E9E9E0;}
	.st1{fill:#86B918;}
	.st2{fill:#D9D7CA;}
	.st3{enable-background:new    ;}
	.st4{fill:#FFFFFF;}
</style>
<g>
	<path class="st0" d="M30.5,0h-29C0.7,0,0,0.7,0,1.9v51.7c0.3,0.6,0.8,1,1.5,1h40.1c0.7,0,1.2-0.4,1.5-1v-41c0-0.7-0.1-0.9-0.3-1.1
		L31.2,0.3C31,0.1,30.8,0,30.5,0z"/>
	<path class="st1" d="M41.6,56H1.5C0.7,56,0,55.3,0,54.5V39h43.1v15.5C43.1,55.3,42.4,56,41.6,56z"/>
	<polygon class="st2" points="31.2,0.3 31.3,11.7 42.9,11.7 	"/>
	<g class="st3">
		<path class="st4" d="M11.2,51.7H6.8v-8.6h4.4v1.2H8v2.3H11v1.2H8v2.7h3.1V51.7z"/>
		<path class="st4" d="M12.2,49.1v-1.2h2.7v1.2H12.2z"/>
		<path class="st4" d="M21.5,45.7c0,0.9-0.3,1.6-0.8,2.1s-1.3,0.7-2.3,0.7h-0.8v3.2h-1.3v-8.6h2.2c1,0,1.7,0.2,2.2,0.7
			C21.3,44.3,21.5,44.9,21.5,45.7z M17.6,47.3h0.7c0.7,0,1.1-0.1,1.4-0.4c0.3-0.2,0.5-0.6,0.5-1.2c0-0.5-0.1-0.9-0.4-1.1
			c-0.3-0.2-0.7-0.4-1.3-0.4h-0.9V47.3z"/>
		<path class="st4" d="M29.2,43.2v5.5c0,0.6-0.1,1.2-0.4,1.7c-0.2,0.5-0.6,0.8-1.1,1.1s-1,0.4-1.7,0.4c-1,0-1.7-0.3-2.3-0.8
			c-0.5-0.6-0.8-1.3-0.8-2.3v-5.5h1.3v5.4c0,0.7,0.1,1.2,0.4,1.6s0.8,0.5,1.4,0.5c1.2,0,1.8-0.7,1.8-2.1v-5.4H29.2z"/>
		<path class="st4" d="M31.2,43.2h2.3c1.1,0,1.8,0.2,2.3,0.5c0.5,0.3,0.7,0.9,0.7,1.6c0,0.5-0.1,0.9-0.4,1.2s-0.6,0.5-1,0.6v0.1
			c0.5,0.1,1,0.3,1.2,0.7s0.4,0.8,0.4,1.4c0,0.8-0.2,1.4-0.7,1.8s-1.2,0.7-2,0.7h-2.8V43.2z M32.5,46.7h1.2c0.5,0,0.9-0.1,1.2-0.3
			c0.2-0.2,0.4-0.5,0.4-0.9c0-0.4-0.1-0.7-0.4-0.9s-0.7-0.3-1.3-0.3h-1.1V46.7z M32.5,47.8v2.7h1.4c0.5,0,0.9-0.1,1.2-0.3
			c0.3-0.2,0.4-0.6,0.4-1.1c0-0.4-0.1-0.8-0.4-1s-0.7-0.3-1.3-0.3H32.5z"/>
	</g>
	<path class="st1" d="M21.5,27.9L15,21.3l6.6-6.6l2.2,2.2l-4.4,4.4l2.2,2.2l6.6-6.6l-5.7-5.7c-0.5-0.5-1.2-0.5-1.7,0l-9.3,9.3
		c-0.5,0.5-0.5,1.2,0,1.7l9.3,9.3c0.5,0.5,1.2,0.5,1.7,0l9.3-9.3c0.5-0.5,0.5-1.2,0-1.7l-1.3-1.3L21.5,27.9z"/>
</g>
</svg>
