<svg id="Capa_1" data-name="Capa 1" xmlns="http://www.w3.org/2000/svg" viewBox="0 0 43.1 56"><defs><style>.cls-1{isolation:isolate;}.cls-2{fill:#fff;}.cls-3{fill:#e9e9e0;}.cls-4{fill:#ed3e5c;}.cls-5{fill:#d9d7ca;}.cls-6{fill:#c8bdb8;}</style></defs><g class="cls-1"><path class="cls-2" d="M5.1,47H7.7v3.6l-1.2.3a5.28,5.28,0,0,1-1.3.1,3,3,0,0,1-2.5-1,3.67,3.67,0,0,1-.9-2.7,3.47,3.47,0,0,1,1-2.7,4.06,4.06,0,0,1,2.7-1,4.92,4.92,0,0,1,2.1.4l-.4,1a3.81,3.81,0,0,0-1.7-.4,2.14,2.14,0,0,0-1.8.7,3.4,3.4,0,0,0-.1,4,2.06,2.06,0,0,0,1.7.7,4.87,4.87,0,0,0,1.2-.1V48.1H5V47Z"/><path class="cls-2" d="M13.4,50.9h-4V43.8h4v1H10.5v1.9h2.7v1H10.5v2.2h2.9Z"/><path class="cls-2" d="M21.3,47.3a3.67,3.67,0,0,1-.9,2.7,3.38,3.38,0,0,1-2.5,1,3,3,0,0,1-2.5-1,3.67,3.67,0,0,1-.9-2.7,3.67,3.67,0,0,1,.9-2.7,3.33,3.33,0,0,1,2.5-.9,3,3,0,0,1,2.5,1A3.27,3.27,0,0,1,21.3,47.3Zm-5.4,0a3.68,3.68,0,0,0,.5,2A1.86,1.86,0,0,0,18,50a1.86,1.86,0,0,0,1.6-.7,2.83,2.83,0,0,0,.5-2,3.68,3.68,0,0,0-.5-2,1.75,1.75,0,0,0-1.6-.7,1.86,1.86,0,0,0-1.6.7A3,3,0,0,0,15.9,47.3Z"/><path class="cls-2" d="M22.2,53.3a2.77,2.77,0,0,1-.9-.1v-1a1.48,1.48,0,0,0,.7.1c.5,0,.7-.3.7-.8v-6h1.1v6.1a1.7,1.7,0,0,1-.4,1.3A2.14,2.14,0,0,1,22.2,53.3Zm.5-9.3a.7.7,0,1,1,1.4,0c0,.2-.1.3-.2.5a.73.73,0,0,1-1,0C22.7,44.4,22.7,44.2,22.7,44Z"/><path class="cls-2" d="M29.1,49.3a1.43,1.43,0,0,1-.6,1.2,2.67,2.67,0,0,1-1.7.4,4,4,0,0,1-1.7-.3v-1a3.92,3.92,0,0,0,1.8.4c.7,0,1.1-.2,1.1-.6,0-.1,0-.3-.1-.3a1.38,1.38,0,0,0-.4-.3,4.88,4.88,0,0,0-.7-.3,5,5,0,0,1-1.3-.7,1.4,1.4,0,0,1-.3-.9,1.25,1.25,0,0,1,.6-1.1,2.41,2.41,0,0,1,1.5-.4,3.92,3.92,0,0,1,1.8.4l-.4.9a5.62,5.62,0,0,0-1.5-.4c-.6,0-.9.2-.9.5a.52.52,0,0,0,.2.4,8.92,8.92,0,0,0,1,.5,4.61,4.61,0,0,1,1,.5.66.66,0,0,1,.4.5C28.9,48.9,29.1,49.1,29.1,49.3Z"/><path class="cls-2" d="M35.2,48.2a2.82,2.82,0,0,1-.7,2.1,2.94,2.94,0,0,1-3.2.4,2.19,2.19,0,0,1-.9-1,3.34,3.34,0,0,1-.3-1.5,2.82,2.82,0,0,1,.7-2.1,2.35,2.35,0,0,1,1.9-.7,2.56,2.56,0,0,1,1.9.8A3.39,3.39,0,0,1,35.2,48.2Zm-4,0c0,1.2.5,1.9,1.4,1.9s1.4-.6,1.4-1.9-.5-1.9-1.4-1.9a1.1,1.1,0,0,0-1,.5A2.59,2.59,0,0,0,31.2,48.2Z"/><path class="cls-2" d="M41.2,50.9H40V47.6a1.22,1.22,0,0,0-.3-.9,1,1,0,0,0-.8-.3,1.37,1.37,0,0,0-1.1.4,2.65,2.65,0,0,0-.3,1.4v2.7H36.4V45.5h.9l.2.7h.1a1.34,1.34,0,0,1,.7-.6,3,3,0,0,1,1-.2c1.3,0,1.9.7,1.9,2v3.5Z"/></g><path class="cls-3" d="M30.5,0H1.5C.7,0,0,.7,0,1.9V53.8a1.64,1.64,0,0,0,1.5,1H41.6a1.64,1.64,0,0,0,1.5-1V12.7c0-.7-.1-.9-.3-1.1L31.2.3a1.33,1.33,0,0,0-.7-.3Z"/><path class="cls-4" d="M41.6,56H1.5A1.54,1.54,0,0,1,0,54.5V39H43.1V54.5A1.54,1.54,0,0,1,41.6,56Z"/><polygon class="cls-5" points="31.2 0.3 31.2 11.7 42.9 11.7 31.2 0.3"/><path class="cls-6" d="M22,31.6a9.92,9.92,0,0,1-3.5-.7A9.23,9.23,0,0,1,15.7,29a7.74,7.74,0,0,1-1.9-2.8,10.39,10.39,0,0,1-.7-3.5,9.92,9.92,0,0,1,.7-3.5,9.23,9.23,0,0,1,1.9-2.8,6.45,6.45,0,0,1,2.8-1.8A8.08,8.08,0,0,1,22,14a9.89,9.89,0,0,1,3.5.6,11.23,11.23,0,0,1,2.8,1.8,7,7,0,0,1,1.9,2.8,8.12,8.12,0,0,1,.7,3.5,9.92,9.92,0,0,1-.7,3.5A9.23,9.23,0,0,1,28.3,29a7.74,7.74,0,0,1-2.8,1.9A7.82,7.82,0,0,1,22,31.6Zm0-1.3a8.32,8.32,0,0,0,1.3-1.8,8.17,8.17,0,0,0,.8-2.5H19.8a16.88,16.88,0,0,0,.8,2.4A15.63,15.63,0,0,0,22,30.3Zm-1.8-.2a6.08,6.08,0,0,1-.9-1.8,7.09,7.09,0,0,1-.6-2.2H15.4a9.7,9.7,0,0,0,1.9,2.5A8.59,8.59,0,0,0,20.2,30.1Zm3.7,0a7.08,7.08,0,0,0,2.8-1.6,6.18,6.18,0,0,0,2-2.5H25.4c-.2.8-.5,1.6-.6,2.2A6.63,6.63,0,0,1,23.9,30.1Zm-9.2-5.4h3.6c0-.4-.1-.7-.1-1.1V21.7a3.75,3.75,0,0,1,.1-1H14.7a3.71,3.71,0,0,0-.2.9c0,.3-.1.6-.1,1a3.08,3.08,0,0,0,.1,1A5.16,5.16,0,0,1,14.7,24.7Zm4.9,0h4.8a4.91,4.91,0,0,0,.1-1.1V21.9c0-.3-.1-.6-.1-1.1H19.6a4.91,4.91,0,0,0-.1,1.1v1.7C19.5,23.9,19.6,24.3,19.6,24.7Zm6.1,0h3.6a3.55,3.55,0,0,0,.2-1c0-.4.1-.6.1-1a3.08,3.08,0,0,0-.1-1,2.92,2.92,0,0,0-.2-.9H25.7c0,.5.1.9.1,1.2v1.6A4.48,4.48,0,0,1,25.7,24.7Zm-.1-5.3h3.3a10,10,0,0,0-2-2.6A8.86,8.86,0,0,0,24,15.3a9.15,9.15,0,0,1,.9,1.7C25.1,17.9,25.4,18.6,25.6,19.4Zm-5.7,0h4.3a15.55,15.55,0,0,0-.8-2.3A6.69,6.69,0,0,0,22,15.2a4,4,0,0,0-1.2,1.6A19.11,19.11,0,0,0,19.9,19.4Zm-4.7,0h3.4a19.12,19.12,0,0,1,.6-2.1,10.08,10.08,0,0,1,.9-1.8A6.21,6.21,0,0,0,17.2,17,6,6,0,0,0,15.2,19.4Z"/><path class="cls-2" d="M4.47,47.36H6.88v3.28a7.86,7.86,0,0,1-1.14.28A8.49,8.49,0,0,1,4.57,51a2.93,2.93,0,0,1-2.29-.88,3.53,3.53,0,0,1-.81-2.48,3.32,3.32,0,0,1,.91-2.47,3.4,3.4,0,0,1,2.5-.89,4.91,4.91,0,0,1,1.94.39l-.37.89a3.7,3.7,0,0,0-1.6-.37,2.15,2.15,0,0,0-1.65.66,2.53,2.53,0,0,0-.61,1.8,2.66,2.66,0,0,0,.55,1.82,2,2,0,0,0,1.58.62A5.06,5.06,0,0,0,5.83,50V48.28H4.47Z"/><path class="cls-2" d="M12.15,50.91H8.45V44.37h3.7v.9H9.52v1.78H12V48H9.52v2h2.63Z"/><path class="cls-2" d="M19.36,47.63a3.59,3.59,0,0,1-.79,2.48A2.92,2.92,0,0,1,16.3,51,2.9,2.9,0,0,1,14,50.12a3.61,3.61,0,0,1-.79-2.5A3.56,3.56,0,0,1,14,45.13a3,3,0,0,1,2.28-.86,2.87,2.87,0,0,1,2.26.88A3.57,3.57,0,0,1,19.36,47.63Zm-5,0a2.87,2.87,0,0,0,.49,1.83,1.72,1.72,0,0,0,1.44.63,1.72,1.72,0,0,0,1.44-.62,3.7,3.7,0,0,0,0-3.66,1.7,1.7,0,0,0-1.44-.63,1.73,1.73,0,0,0-1.45.63A2.93,2.93,0,0,0,14.37,47.63Z"/><path class="cls-2" d="M19.94,52.73a1.94,1.94,0,0,1-.73-.11v-.9a2.45,2.45,0,0,0,.65.1c.58,0,.88-.37.88-1.11V44.37h1.07v6.3a2.19,2.19,0,0,1-.48,1.53A1.74,1.74,0,0,1,19.94,52.73Z"/><path class="cls-2" d="M27.28,49.13a1.65,1.65,0,0,1-.63,1.37,2.75,2.75,0,0,1-1.74.5,4.16,4.16,0,0,1-1.82-.35v-1A4.84,4.84,0,0,0,24,50a4.1,4.1,0,0,0,.94.12,1.48,1.48,0,0,0,.93-.24.76.76,0,0,0,.31-.65.84.84,0,0,0-.28-.62,4.23,4.23,0,0,0-1.15-.6,3.09,3.09,0,0,1-1.26-.83A1.77,1.77,0,0,1,23.17,46a1.55,1.55,0,0,1,.58-1.28,2.36,2.36,0,0,1,1.56-.47,4.52,4.52,0,0,1,1.87.41l-.34.87a4,4,0,0,0-1.56-.37,1.22,1.22,0,0,0-.79.23.76.76,0,0,0-.26.6.83.83,0,0,0,.1.43,1,1,0,0,0,.36.34,6,6,0,0,0,.88.43,4.75,4.75,0,0,1,1.06.56,1.65,1.65,0,0,1,.49.58A1.86,1.86,0,0,1,27.28,49.13Z"/><path class="cls-2" d="M34.35,47.63a3.59,3.59,0,0,1-.8,2.48,2.89,2.89,0,0,1-2.26.89A2.9,2.9,0,0,1,29,50.12a3.61,3.61,0,0,1-.79-2.5,3.56,3.56,0,0,1,.8-2.49,3,3,0,0,1,2.28-.86,2.87,2.87,0,0,1,2.25.88A3.57,3.57,0,0,1,34.35,47.63Zm-5,0a2.94,2.94,0,0,0,.48,1.83,2,2,0,0,0,2.89,0,3,3,0,0,0,.48-1.84,2.93,2.93,0,0,0-.48-1.82,1.69,1.69,0,0,0-1.43-.63,1.72,1.72,0,0,0-1.45.63A2.86,2.86,0,0,0,29.36,47.63Z"/><path class="cls-2" d="M41.2,50.91H39.89L36.67,45.7h0l0,.29c0,.55.06,1.06.06,1.52v3.4h-1V44.37h1.3l3.21,5.18h0c0-.07,0-.31,0-.75s0-.76,0-1V44.37h1Z"/></svg>