<svg id="Capa_1" data-name="Capa 1" xmlns="http://www.w3.org/2000/svg" viewBox="0 0 43.1 56"><defs><style>.cls-1{fill:#e9e9e0;}.cls-2{fill:#2f26ea;}.cls-3{fill:#d9d7ca;}.cls-4{fill:#c8bdb8;}.cls-5{fill:#fff;}</style></defs><path class="cls-1" d="M30.5,0H1.5C.7,0,0,.7,0,1.9V53.8a1.64,1.64,0,0,0,1.5,1H41.6a1.64,1.64,0,0,0,1.5-1V12.7c0-.7-.1-.9-.3-1.1L31.2.3a1.33,1.33,0,0,0-.7-.3Z"/><path class="cls-2" d="M41.59,56H1.5A1.54,1.54,0,0,1,0,54.5V39H43.09V54.5A1.47,1.47,0,0,1,41.59,56Z"/><polygon class="cls-3" points="31.2 0.3 31.2 11.7 42.9 11.7 31.2 0.3"/><path class="cls-4" d="M28.3,21.8H29a.76.76,0,0,1,.5.2c.7,1.1,1.4,2,2,3.1.1.2.2.3.1.5s-.2.2-.5.2H29.5V31a.53.53,0,0,1-.6.6H12.3c-.2,0-.2-.1-.2-.2V25.9H10.6a1.08,1.08,0,0,1-.7-.3v-.2c.7-1.1,1.5-2.2,2.2-3.3.1-.2.2-.2.5-.2h2.9A5.91,5.91,0,0,1,18,14.4a5.58,5.58,0,0,1,6.3.4c2.3,1.9,2.8,4.2,1.9,7h1.1M14.4,30.9h5.9V23.7l-.6.9a10.54,10.54,0,0,0-.7,1.1.6.6,0,0,1-.6.3H12.8v4.9Zm7-7.2v7.2h7.4v-5H23.3a2.12,2.12,0,0,1-.7-.3,16.29,16.29,0,0,0-1.1-1.7C21.4,23.8,21.4,23.8,21.4,23.7Zm-1.4-1H12.8a.22.22,0,0,0-.2.2c-.5.7-.9,1.4-1.4,2,0,.1-.1.1-.1.2h7.1a.22.22,0,0,0,.2-.2,15.26,15.26,0,0,1,1.1-1.6A1.33,1.33,0,0,0,20,22.7Zm10.5,2.4a2.49,2.49,0,0,1-.5-.7,6.71,6.71,0,0,1-.9-1.4c-.1-.2-.2-.3-.4-.3h-7c.1.2.2.2.3.4a15.26,15.26,0,0,1,1.1,1.6c.1.2.2.3.4.3h6.8A.31.31,0,0,0,30.5,25.1Zm-8-6.1h0a9.19,9.19,0,0,0-.6-3.3,5.3,5.3,0,0,0-.6-1,.56.56,0,0,0-.9,0c-.2.2-.2.4-.4.6a7.22,7.22,0,0,0-.7,2.8,2.2,2.2,0,0,1-.1.8C20.4,19,21.4,19,22.5,19Zm.8,0h2.5a5.67,5.67,0,0,0-1.5-3.1,4,4,0,0,0-2-1.1A7.49,7.49,0,0,1,23.3,19Zm-3.9-4.3c-1.6.2-3.5,2.6-3.4,4.2h2.5A8.85,8.85,0,0,1,19.4,14.7Zm-.2,5.2a12.37,12.37,0,0,1,.2,1.8c0,.2.1.2.2.2h2a.66.66,0,0,0,.7-.6c.1-.5.1-.9.2-1.4Zm-3.2,0a5.34,5.34,0,0,0,.5,1.8c.1.2.2.2.4.2a7.52,7.52,0,0,1,1.5,0h.3v-.2c-.1-.5-.1-.9-.2-1.4s0-.4-.4-.4Zm9.8,0H23.4a.22.22,0,0,0-.2.2c0,.4-.1.7-.1,1.1,0,.2-.1.5-.1.7h2a.35.35,0,0,0,.2-.1A4.67,4.67,0,0,0,25.8,19.9Z"/><path class="cls-5" d="M3.39,47.35H5V49.6a4.55,4.55,0,0,1-.77.19,6.77,6.77,0,0,1-.81.05,2,2,0,0,1-1.56-.6,2.42,2.42,0,0,1-.55-1.7A2.24,2.24,0,0,1,2,45.85a2.31,2.31,0,0,1,1.71-.61A3.33,3.33,0,0,1,5,45.51l-.26.61a2.55,2.55,0,0,0-1.09-.25,1.46,1.46,0,0,0-1.13.45,1.73,1.73,0,0,0-.42,1.23,1.85,1.85,0,0,0,.38,1.25,1.37,1.37,0,0,0,1.08.42,3.36,3.36,0,0,0,.75-.08V48H3.39Z"/><path class="cls-5" d="M8.64,49.78H6.11V45.31H8.64v.61H6.84v1.22H8.53v.61H6.84v1.41h1.8Z"/><path class="cls-5" d="M13.58,47.54a2.48,2.48,0,0,1-.54,1.7,2,2,0,0,1-1.55.6,2,2,0,0,1-1.56-.6,2.47,2.47,0,0,1-.54-1.71,2.38,2.38,0,0,1,.55-1.7,2,2,0,0,1,1.56-.6,2,2,0,0,1,1.54.61A2.46,2.46,0,0,1,13.58,47.54Zm-3.41,0a2,2,0,0,0,.33,1.25,1.16,1.16,0,0,0,1,.43,1.17,1.17,0,0,0,1-.42,2.52,2.52,0,0,0,0-2.51,1.15,1.15,0,0,0-1-.43,1.19,1.19,0,0,0-1,.43A2,2,0,0,0,10.17,47.54Z"/><path class="cls-5" d="M17.51,46.66a1.28,1.28,0,0,1-.46,1.07,2,2,0,0,1-1.31.38h-.46v1.67h-.73V45.31h1.28a2,2,0,0,1,1.26.34A1.22,1.22,0,0,1,17.51,46.66Zm-2.23.83h.39a1.38,1.38,0,0,0,.82-.19.73.73,0,0,0,.27-.62.68.68,0,0,0-.24-.57,1.14,1.14,0,0,0-.73-.19h-.51Z"/><path class="cls-5" d="M21.18,49.78l-.45-1.24H19l-.44,1.24h-.77l1.68-4.49h.79L22,49.78Zm-.64-1.87-.42-1.22c0-.08-.07-.21-.13-.39s-.09-.3-.11-.38a5.58,5.58,0,0,1-.24.82l-.4,1.17Z"/><path class="cls-5" d="M24.45,45.87a1.2,1.2,0,0,0-1,.45,1.9,1.9,0,0,0-.36,1.23,2,2,0,0,0,.35,1.25,1.23,1.23,0,0,0,1,.42,2.6,2.6,0,0,0,.56-.06c.17,0,.36-.08.55-.14v.62a3.2,3.2,0,0,1-1.19.2,1.92,1.92,0,0,1-1.51-.59,2.47,2.47,0,0,1-.53-1.71,2.77,2.77,0,0,1,.25-1.22,1.91,1.91,0,0,1,.74-.8,2.24,2.24,0,0,1,1.14-.28,2.85,2.85,0,0,1,1.27.29l-.27.61A3.85,3.85,0,0,0,25,46,1.91,1.91,0,0,0,24.45,45.87Z"/><path class="cls-5" d="M29.94,49.78h-.85l-1.4-2-.43.36v1.67h-.74V45.31h.74v2.13l.59-.7,1.21-1.43h.84l-1.69,2Z"/><path class="cls-5" d="M33.31,49.78l-.45-1.24H31.15l-.44,1.24h-.77l1.68-4.49h.79l1.68,4.49Zm-.64-1.87-.42-1.22c0-.08-.07-.21-.13-.39S32,46,32,45.92a5.58,5.58,0,0,1-.24.82l-.4,1.17Z"/><path class="cls-5" d="M36.51,47.35h1.65V49.6a4.9,4.9,0,0,1-.78.19,6.6,6.6,0,0,1-.8.05,2,2,0,0,1-1.57-.6,2.42,2.42,0,0,1-.55-1.7,2.28,2.28,0,0,1,.62-1.69,2.31,2.31,0,0,1,1.71-.61,3.33,3.33,0,0,1,1.33.27l-.26.61a2.51,2.51,0,0,0-1.09-.25,1.48,1.48,0,0,0-1.13.45,1.73,1.73,0,0,0-.42,1.23,1.85,1.85,0,0,0,.38,1.25,1.37,1.37,0,0,0,1.08.42,3.45,3.45,0,0,0,.76-.08V48h-.93Z"/><path class="cls-5" d="M41.76,49.78H39.23V45.31h2.53v.61H40v1.22h1.69v.61H40v1.41h1.8Z"/></svg>