<svg id="Capa_1" data-name="Capa 1" xmlns="http://www.w3.org/2000/svg" viewBox="0 0 43.1 56"><defs><style>.cls-1{fill:#e9e9e0;}.cls-2{fill:#d9d7ca;}.cls-3{fill:#f3d55b;}.cls-4{fill:#26b99a;}.cls-5{fill:#14a085;}.cls-6{fill:#fff;}</style></defs><path class="cls-1" d="M30.53,0h-29C.7,0,.05.65.05,1.93V55c0,.35.65,1,1.46,1H41.59c.8,0,1.46-.65,1.46-1V13c0-.7-.09-.92-.26-1.09L31.16.26A.88.88,0,0,0,30.53,0Z"/><path class="cls-2" d="M31.05.15V12H42.9Z"/><circle class="cls-3" cx="12.48" cy="14.43" r="4.57"/><path class="cls-4" d="M.05,39h43V28l-10-9.5L22.55,30l-5.48-5.48Z"/><path class="cls-5" d="M41.59,56H1.51A1.47,1.47,0,0,1,.05,54.54h0V39h43V54.54A1.47,1.47,0,0,1,41.59,56Z"/><path class="cls-6" d="M15,42.65V50.5a2.52,2.52,0,0,1-.26,1.19,2.19,2.19,0,0,1-.7.78,2.87,2.87,0,0,1-1,.41,5.66,5.66,0,0,1-1.17.12,4.83,4.83,0,0,1-.7-.06,6.58,6.58,0,0,1-.83-.19c-.29-.09-.57-.19-.83-.3a2.93,2.93,0,0,1-.67-.37l.7-1.1a2.29,2.29,0,0,0,.39.2l.55.19a5.81,5.81,0,0,0,.63.15,2.72,2.72,0,0,0,.61.07,2.08,2.08,0,0,0,1.16-.28,1.09,1.09,0,0,0,.46-1V42.65Zm4.08,10.28H17.42V42.85h2.9a4,4,0,0,1,1.27.21,3.37,3.37,0,0,1,1.13.62,3.26,3.26,0,0,1,.81,1,2.77,2.77,0,0,1,.3,1.3,3.45,3.45,0,0,1-.26,1.39,2.82,2.82,0,0,1-.72,1,3.18,3.18,0,0,1-1.12.65,4.2,4.2,0,0,1-1.45.23H19.06v3.64Zm0-8.83v4h1.51a1.7,1.7,0,0,0,.59-.1,1.41,1.41,0,0,0,.54-.34,1.56,1.56,0,0,0,.4-.64,3.13,3.13,0,0,0,.15-1,2.44,2.44,0,0,0-.07-.56,1.52,1.52,0,0,0-.28-.62,1.63,1.63,0,0,0-.59-.49,2.28,2.28,0,0,0-1-.2Zm14,3.64v3.89a2.85,2.85,0,0,1-.7.65,4.54,4.54,0,0,1-.82.42,4.66,4.66,0,0,1-.89.23,5.67,5.67,0,0,1-.91.07,4.1,4.1,0,0,1-1.66-.33,3.71,3.71,0,0,1-1.33-1,4.71,4.71,0,0,1-.89-1.61,7.29,7.29,0,0,1-.32-2.24,7.2,7.2,0,0,1,.32-2.24A4.71,4.71,0,0,1,26.74,44a3.75,3.75,0,0,1,1.33-1,4.15,4.15,0,0,1,1.66-.34,4.32,4.32,0,0,1,1.53.27,3.9,3.9,0,0,1,1.27.82l-1.14,1a1.88,1.88,0,0,0-.75-.58,2.55,2.55,0,0,0-.87-.18,2.48,2.48,0,0,0-1,.2,2.13,2.13,0,0,0-.82.64,3.29,3.29,0,0,0-.56,1.19,6.77,6.77,0,0,0-.22,1.77,7.56,7.56,0,0,0,.21,1.78A3.5,3.5,0,0,0,28,50.85a2.2,2.2,0,0,0,.79.71,2,2,0,0,0,.94.23,3.19,3.19,0,0,0,.4,0l.51-.06a4.27,4.27,0,0,0,.48-.13.65.65,0,0,0,.34-.24V48.86H29.71V47.73h3.34Z"/></svg>