<svg id="Capa_1" data-name="Capa 1" xmlns="http://www.w3.org/2000/svg" viewBox="0 0 43.1 56"><defs><style>.cls-1{fill:#e9e9e0;}.cls-2{fill:#2f26ea;}.cls-3{fill:#d9d7ca;}.cls-4{isolation:isolate;}.cls-5{fill:#fff;}.cls-6{fill:#c8bdb8;}</style></defs><path class="cls-1" d="M30.5,0H1.5C.7,0,0,.7,0,1.9V53.8a1.64,1.64,0,0,0,1.5,1H41.6a1.64,1.64,0,0,0,1.5-1V12.7c0-.7-.1-.9-.3-1.1L31.2.3a1.33,1.33,0,0,0-.7-.3Z"/><path class="cls-2" d="M41.6,56H1.5A1.54,1.54,0,0,1,0,54.5V39H43.1V54.5A1.54,1.54,0,0,1,41.6,56Z"/><polygon class="cls-3" points="31.2 0.3 31.3 11.7 42.9 11.7 31.2 0.3"/><g class="cls-4"><path class="cls-5" d="M15.3,52.8h-2L9.9,48l-1,.8v4H7.1V42.1H8.9v5.1c.5-.6,1-1.2,1.4-1.7l2.9-3.4h2c-1.9,2.2-3.2,3.8-4,4.7Z"/><path class="cls-5" d="M21.3,52.8l-3.1-8.9h-.1c.1,1.3.1,2.6.1,3.7v5.2H16.6V42.1h2.5l3,8.5h0l3.1-8.5h2.5V52.8H26V45.4c0-.9.1-1.4.1-1.6H26l-3.2,8.9H21.3Z"/><path class="cls-5" d="M30.5,52.8V42.1h1.8v9.2h4.5v1.5Z"/></g><path class="cls-6" d="M31.5,22.7a9.86,9.86,0,0,1-9.9,9.9,10,10,0,0,1-9.9-9.9,9.9,9.9,0,0,1,19.8,0ZM31,24.6a13.78,13.78,0,0,1-5.1-3c-1.4-1.2-2.7-2.5-4-3.7a6.54,6.54,0,0,0-4.1-2.1c-1.5-.1-3,0-3.9,1.6-.5.8-.9,1.6-1.3,2.4a6.37,6.37,0,0,0-.2.7l.7-.7c1.7-1.5,2.8-1.7,4.7-.6a32.84,32.84,0,0,1,3.1,2c1.8,1.2,3.6,2.4,5.5,3.5a12.25,12.25,0,0,0,4.2,1.4A8.33,8.33,0,0,1,31,24.6ZM17.7,31.1a6.37,6.37,0,0,0-.2-.7c-.1-.7.2-1,.8-1a3.55,3.55,0,0,1,1,.2A13.81,13.81,0,0,0,26,30a4.05,4.05,0,0,0,3.3-2c0-.1.1-.2.1-.3-3.4,1.3-6.6.8-9.8-.2-1.4-.5-2.8-1.1-4.2-1.6a3.19,3.19,0,0,0-1.4-.3c-.6,0-1.1.7-.9,1.1A9.38,9.38,0,0,0,17.7,31.1Zm.7-17h1.3a7.85,7.85,0,0,1,5.8,2.4,22.26,22.26,0,0,1,1.9,2.4c.5.6,1.1,1.3,1.7,1.9a.78.78,0,0,0,1.1.1c.4-.3.4-.6.2-1.1a9.53,9.53,0,0,0-8.1-6.3A7.63,7.63,0,0,0,18.4,14.1Z"/></svg>