<svg id="Capa_1" data-name="Capa 1" xmlns="http://www.w3.org/2000/svg" viewBox="0 0 43.1 56"><defs><style>.cls-1{fill:#e9e9e0;}.cls-2{fill:#aa26b5;}.cls-3{fill:#d9d7ca;}.cls-4{fill:#c8bdb8;}.cls-5{isolation:isolate;}.cls-6{fill:#fff;}</style></defs><path class="cls-1" d="M30.5,0H1.5C.7,0,0,.7,0,1.9V53.8a1.64,1.64,0,0,0,1.5,1H41.6a1.64,1.64,0,0,0,1.5-1V12.7c0-.7-.1-.9-.3-1.1L31.2.3a1.33,1.33,0,0,0-.7-.3Z"/><path class="cls-2" d="M41.6,56H1.5A1.54,1.54,0,0,1,0,54.5V39H43.1V54.5A1.54,1.54,0,0,1,41.6,56Z"/><polygon class="cls-3" points="31.2 0.3 31.2 11.7 42.9 11.7 31.2 0.3"/><path class="cls-4" d="M16.3,20h4.9V18.2c0-.5.1-.6.6-.6h5.1V15.8c0-.7,0-.7.6-.7h5c.6,0,.6.1.6.7V30.2c0,.6-.1.7-.6.7H10.8c-.6,0-.6-.1-.6-.7V15.8c0-.6.1-.6.6-.6h5c.6,0,.6.1.6.6C16.3,17.2,16.3,18.6,16.3,20Zm-.6,5.8H10.8v1.7h4.9ZM10.8,20h4.9V18.3H10.8Zm21.5-1.7H27.4V20h4.9ZM15.7,20.8H10.8v1.7h4.9Zm16.6,0H27.4v1.7h4.9Zm-4.8,5v1.7h4.9V25.8Zm4.8-2.5H27.4V25h4.9Zm-16.6,0H10.8V25h4.9Zm.6,2.5v1.5c0,.1.2.3.2.3h4.4a.22.22,0,0,0,.2-.2V25.9C19.6,25.8,18,25.8,16.3,25.8Zm5.6,1.7h4.9V25.8H21.9Zm0-9.2V20h4.9V18.3Zm-.7,2.5H16.5a.22.22,0,0,0-.2.2v1.5h4.9Zm5.6,1.8V21.3c0-.3-.1-.4-.3-.4H22.1v1.7ZM16.3,25.1h4.9V23.4H16.3Zm5.6,0h4.9V23.4H21.9ZM27.5,30h4.9V28.3H27.5ZM15.7,15.8H10.8v1.7h4.9Zm16.6,0H27.4v1.7h4.9ZM15.7,28.3H10.8V30h4.9Zm11.1,0H21.9V30h4.9ZM16.3,30h4.9V28.3H16.3Z"/><g class="cls-5"><path class="cls-6" d="M16.5,47.4a5.94,5.94,0,0,1-1.3,4.1A4.68,4.68,0,0,1,11.5,53a4.82,4.82,0,0,1-3.7-1.4,5.78,5.78,0,0,1-1.3-4.1,5.78,5.78,0,0,1,1.3-4.1A5,5,0,0,1,11.5,42a5,5,0,0,1,3.7,1.4A5.36,5.36,0,0,1,16.5,47.4Zm-8.2,0a5.1,5.1,0,0,0,.8,3,2.72,2.72,0,0,0,2.4,1,3,3,0,0,0,2.4-1,5.1,5.1,0,0,0,.8-3,5.1,5.1,0,0,0-.8-3,2.64,2.64,0,0,0-2.3-1,3,3,0,0,0-2.4,1A4.48,4.48,0,0,0,8.3,47.4Z"/><path class="cls-6" d="M27.5,47.3A5.44,5.44,0,0,1,26,51.4a6.07,6.07,0,0,1-4.2,1.4h-3V42.1h3.3a5.72,5.72,0,0,1,4,1.4A4.7,4.7,0,0,1,27.5,47.3Zm-1.9.1c0-2.6-1.2-3.8-3.6-3.8H20.5v7.8h1.2C24.3,51.3,25.6,50,25.6,47.4Z"/><path class="cls-6" d="M35.9,49.9a2.46,2.46,0,0,1-1,2.2,4.65,4.65,0,0,1-2.8.8,6.68,6.68,0,0,1-3-.6V50.6a7.49,7.49,0,0,0,1.6.5,8.87,8.87,0,0,0,1.5.2,2.08,2.08,0,0,0,1.5-.4,1.43,1.43,0,0,0,.5-1.1,1.39,1.39,0,0,0-.5-1,6.17,6.17,0,0,0-1.9-1,4.29,4.29,0,0,1-2.1-1.4,3,3,0,0,1-.6-1.8,2.39,2.39,0,0,1,1-2.1,4.24,4.24,0,0,1,2.6-.8,7.3,7.3,0,0,1,3.1.7l-.6,1.4a6.88,6.88,0,0,0-2.5-.6,1.7,1.7,0,0,0-1.3.4,1.16,1.16,0,0,0-.4,1,1.45,1.45,0,0,0,.2.7,1.7,1.7,0,0,0,.6.6,11.25,11.25,0,0,0,1.5.7,5.16,5.16,0,0,1,1.7.9,3.92,3.92,0,0,1,.8,1A6.6,6.6,0,0,1,35.9,49.9Z"/></g></svg>