<svg id="Capa_1" data-name="Capa 1" xmlns="http://www.w3.org/2000/svg" viewBox="0 0 43.1 56"><defs><style>.cls-1{fill:#e9e9e0;}.cls-2{fill:#686868;}.cls-3{fill:#d9d7ca;}.cls-4{isolation:isolate;}.cls-5{fill:#fff;}.cls-6{fill:#c8bdb8;}</style></defs><path class="cls-1" d="M30.5,0H1.5C.7,0,0,.7,0,1.9V53.8a1.64,1.64,0,0,0,1.5,1H41.6a1.64,1.64,0,0,0,1.5-1V12.7c0-.7-.1-.9-.3-1.1L31.2.3a1.33,1.33,0,0,0-.7-.3Z"/><path class="cls-2" d="M41.6,56H1.5A1.54,1.54,0,0,1,0,54.5V39H43.1V54.5A1.54,1.54,0,0,1,41.6,56Z"/><polygon class="cls-3" points="31.2 0.3 31.3 11.8 42.9 11.8 31.2 0.3"/><g class="cls-4"><path class="cls-5" d="M16.8,48.3a5.94,5.94,0,0,1-1.3,4.1,4.68,4.68,0,0,1-3.7,1.5,4.82,4.82,0,0,1-3.7-1.4,5.78,5.78,0,0,1-1.3-4.1,5.78,5.78,0,0,1,1.3-4.1,5,5,0,0,1,3.7-1.4,5,5,0,0,1,3.7,1.4A5.36,5.36,0,0,1,16.8,48.3Zm-8.2,0a5.1,5.1,0,0,0,.8,3,2.72,2.72,0,0,0,2.4,1,3,3,0,0,0,2.4-1,5.1,5.1,0,0,0,.8-3,5.1,5.1,0,0,0-.8-3,2.64,2.64,0,0,0-2.3-1,3,3,0,0,0-2.4,1A4.14,4.14,0,0,0,8.6,48.3Z"/><path class="cls-5" d="M27.8,48.2a5.44,5.44,0,0,1-1.5,4.1,6.07,6.07,0,0,1-4.2,1.4h-3V42.9h3.3a5.72,5.72,0,0,1,4,1.4A4.93,4.93,0,0,1,27.8,48.2Zm-1.8,0c0-2.6-1.2-3.8-3.6-3.8H20.9v7.8h1.2C24.7,52.2,26,50.8,26,48.2Z"/><path class="cls-5" d="M33.8,53.6H32V44.4H28.9V42.9h8v1.5H33.8Z"/></g><path class="cls-6" d="M14.1,15.7H9a.84.84,0,0,1-.9-.9.8.8,0,0,1,.9-.9h5.1a.84.84,0,0,1,.9.9A.8.8,0,0,1,14.1,15.7ZM16.7,20H9a.9.9,0,1,1,0-1.8h7.7a.84.84,0,0,1,.9.9C17.5,19.6,17.2,20,16.7,20Zm3.4,0a1.06,1.06,0,0,1-.9-.9.71.71,0,0,1,.3-.6.91.91,0,0,1,1.2,0,.75.75,0,0,1,0,1.2.71.71,0,0,1-.6.3Zm10.2,0H23.5a.9.9,0,0,1,0-1.8h6.8a.84.84,0,0,1,.9.9C31.1,19.6,30.8,20,30.3,20ZM9,32.7a.71.71,0,0,1-.6-.3.75.75,0,0,1,0-1.2.91.91,0,0,1,1.2,0,.75.75,0,0,1,0,1.2.6.6,0,0,1-.6.3Zm10.2,0H12.4a.84.84,0,0,1-.9-.9.8.8,0,0,1,.9-.9h6.8a.84.84,0,0,1,.9.9A.8.8,0,0,1,19.2,32.7ZM35.4,20H33.7a.9.9,0,0,1,0-1.8h1.7a.84.84,0,0,1,.9.9C36.2,19.6,35.9,20,35.4,20Zm-7.7,4.2H9a.9.9,0,1,1,0-1.8H27.7a.84.84,0,0,1,.9.9A.8.8,0,0,1,27.7,24.2Zm7.7,0H30.3a.9.9,0,1,1,0-1.8h5.1a.84.84,0,0,1,.9.9Q36.15,24.2,35.4,24.2Zm-23,4.3H9a.9.9,0,0,1,0-1.8h3.4a.9.9,0,0,1,0,1.8Zm11.9,0H15.8a.9.9,0,0,1,0-1.8h8.5a.9.9,0,1,1,0,1.8Zm11.1,0H27.7a.9.9,0,0,1,0-1.8h7.7a.84.84,0,0,1,.9.9C36.2,28.1,35.9,28.5,35.4,28.5Z"/></svg>