<svg id="Capa_1" data-name="Capa 1" xmlns="http://www.w3.org/2000/svg" viewBox="0 0 43.1 56"><defs><style>.cls-1{fill:#e9e9e0;}.cls-2{fill:#b76902;}.cls-3{fill:#d9d7ca;}.cls-4{isolation:isolate;}.cls-5{fill:#fff;}.cls-6{fill:#938c89;}.cls-7{fill:#c8bdb8;}</style></defs><path class="cls-1" d="M30.5,0H1.5C.7,0,0,.7,0,1.9V53.8a1.64,1.64,0,0,0,1.5,1H41.6a1.64,1.64,0,0,0,1.5-1V12.7c0-.7-.1-.9-.3-1.1L31.2.3a1.33,1.33,0,0,0-.7-.3Z"/><path class="cls-2" d="M41.6,56H1.5A1.54,1.54,0,0,1,0,54.5V39H43.1V54.5A1.54,1.54,0,0,1,41.6,56Z"/><polygon class="cls-3" points="31.2 0.3 31.2 11.7 42.9 11.7 31.2 0.3"/><g class="cls-4"><path class="cls-5" d="M15.4,49.9a2.46,2.46,0,0,1-1,2.2,4.65,4.65,0,0,1-2.8.8,6.68,6.68,0,0,1-3-.6V50.6a7.49,7.49,0,0,0,1.6.5,8.87,8.87,0,0,0,1.5.2,2.08,2.08,0,0,0,1.5-.4,1.43,1.43,0,0,0,.5-1.1,1.39,1.39,0,0,0-.5-1,6.17,6.17,0,0,0-1.9-1,4.29,4.29,0,0,1-2.1-1.4,3,3,0,0,1-.6-1.8,2.39,2.39,0,0,1,1-2.1,4.24,4.24,0,0,1,2.6-.8,7.3,7.3,0,0,1,3.1.7l-.6,1.4a6.88,6.88,0,0,0-2.5-.6,1.7,1.7,0,0,0-1.3.4,1.16,1.16,0,0,0-.4,1,1.45,1.45,0,0,0,.2.7,1.7,1.7,0,0,0,.6.6,11.25,11.25,0,0,0,1.5.7,5.16,5.16,0,0,1,1.7.9,3.92,3.92,0,0,1,.8,1C15.3,49,15.4,49.4,15.4,49.9Z"/><path class="cls-5" d="M24.1,52.8l-1.1-3H18.9l-1,3H16.1l4-10.8H22l4,10.8Zm-1.5-4.5-1-2.9a4.65,4.65,0,0,1-.3-.9,4.65,4.65,0,0,0-.3-.9,8.93,8.93,0,0,1-.6,2l-1,2.8h3.2Z"/><path class="cls-5" d="M33.5,42.1h1.8L31.5,52.8H29.7L26,42.1h1.8L30,48.8c.1.3.2.7.4,1.2a5.31,5.31,0,0,0,.3,1.1c.1-.4.2-.8.3-1.3a8.11,8.11,0,0,1,.3-1.1Z"/></g><path class="cls-6" d="M21.8,17.1h7.1a6.15,6.15,0,0,1,6.2,4.7,6.44,6.44,0,0,1-2.5,6.8,6.33,6.33,0,0,1-9.8-4.4c-.1-.5-.2-.6-.7-.6-1.2,0-1.2,0-1.4,1.1a6.38,6.38,0,0,1-6.5,5,6.31,6.31,0,0,1,.2-12.6h7.4Z"/><path class="cls-7" d="M21.8,17.1h7.1a6.15,6.15,0,0,1,6.2,4.7,6.44,6.44,0,0,1-2.5,6.8,6.33,6.33,0,0,1-9.8-4.4c-.1-.5-.2-.6-.7-.6-1.2,0-1.2,0-1.4,1.1a6.38,6.38,0,0,1-6.5,5,6.31,6.31,0,0,1,.2-12.6h7.4Zm6.6,5.6H26.3v1.6h2.1v2.1h1.7V24.3h2.1V22.6H30.1V20.5H28.5A15.48,15.48,0,0,0,28.4,22.7Zm-14.9-.1a1.24,1.24,0,0,0-1.2-1.3,1.29,1.29,0,0,0-1.2,1.2,1.24,1.24,0,0,0,1.2,1.3A1.29,1.29,0,0,0,13.5,22.6Zm1.9-2.4a1.16,1.16,0,0,0-1.2,1.2,1.31,1.31,0,0,0,1.2,1.3,1.16,1.16,0,0,0,1.2-1.2A1.24,1.24,0,0,0,15.4,20.2Zm2.3,4.2a1.16,1.16,0,0,0-1.2-1.2,1.24,1.24,0,0,0-1.3,1.2,1.18,1.18,0,0,0,1.3,1.2A1.29,1.29,0,0,0,17.7,24.4Zm-4.3-.1a1.29,1.29,0,0,0-1.2,1.2,1.18,1.18,0,0,0,1.3,1.2,1.16,1.16,0,0,0,1.2-1.2A1.48,1.48,0,0,0,13.4,24.3Z"/></svg>