<svg id="Capa_1" data-name="Capa 1" xmlns="http://www.w3.org/2000/svg" viewBox="0 0 43.1 56"><defs><style>.cls-1{fill:#e9e9e0;}.cls-2{fill:#686868;}.cls-3{fill:#d9d7ca;}.cls-4{fill:#c8bdb8;}.cls-5{isolation:isolate;}.cls-6{fill:#fff;}</style></defs><path class="cls-1" d="M30.5,0H1.5C.7,0,0,.7,0,1.9V53.8a1.64,1.64,0,0,0,1.5,1H41.6a1.64,1.64,0,0,0,1.5-1V12.7c0-.7-.1-.9-.3-1.1L31.2.3a1.33,1.33,0,0,0-.7-.3Z"/><path class="cls-2" d="M41.6,56H1.5A1.54,1.54,0,0,1,0,54.5V39H43.1V54.5A1.54,1.54,0,0,1,41.6,56Z"/><polygon class="cls-3" points="31.2 0.3 31.3 11.7 42.9 11.7 31.2 0.3"/><path class="cls-4" d="M13.5,15.6H8.4a.9.9,0,0,1,0-1.8h5.1a.84.84,0,0,1,.9.9A.9.9,0,0,1,13.5,15.6Zm2.6,4.2H8.4a.9.9,0,0,1,0-1.8h7.7a.84.84,0,0,1,.9.9Q16.85,19.8,16.1,19.8Zm3.4,0a1.06,1.06,0,0,1-.9-.9.71.71,0,0,1,.3-.6.91.91,0,0,1,1.2,0,.75.75,0,0,1,0,1.2.86.86,0,0,1-.6.3Zm10.2,0H22.9a.9.9,0,0,1,0-1.8h6.8a.84.84,0,0,1,.9.9Q30.45,19.8,29.7,19.8ZM8.4,32.6a.71.71,0,0,1-.6-.3.75.75,0,0,1,0-1.2.91.91,0,0,1,1.2,0,.75.75,0,0,1,0,1.2.71.71,0,0,1-.6.3Zm10.2,0H11.8a.9.9,0,1,1,0-1.8h6.8a.84.84,0,0,1,.9.9A.9.9,0,0,1,18.6,32.6ZM34.8,19.8H33.1a.9.9,0,0,1,0-1.8h1.7a.84.84,0,0,1,.9.9Q35.55,19.8,34.8,19.8Zm-7.7,4.3H8.4a.9.9,0,0,1,0-1.8H27.1a.84.84,0,0,1,.9.9A.9.9,0,0,1,27.1,24.1Zm7.7,0H29.7a.9.9,0,0,1,0-1.8h5.1a.84.84,0,0,1,.9.9C35.6,23.7,35.3,24.1,34.8,24.1Zm-23,4.2H8.4a.9.9,0,1,1,0-1.8h3.4a.9.9,0,0,1,0,1.8Zm11.9,0H15.2a.9.9,0,0,1,0-1.8h8.5a.9.9,0,0,1,0,1.8Zm11.1,0H27.1a.9.9,0,1,1,0-1.8h7.7a.84.84,0,0,1,.9.9Q35.55,28.3,34.8,28.3Z"/><g class="cls-5"><path class="cls-6" d="M15.3,49.9a2.46,2.46,0,0,1-1,2.2,4.65,4.65,0,0,1-2.8.8,6.68,6.68,0,0,1-3-.6V50.6a7.49,7.49,0,0,0,1.6.5,8.87,8.87,0,0,0,1.5.2,2.08,2.08,0,0,0,1.5-.4,1.43,1.43,0,0,0,.5-1.1,1.39,1.39,0,0,0-.5-1,6.17,6.17,0,0,0-1.9-1,4.29,4.29,0,0,1-2.1-1.4,3,3,0,0,1-.6-1.8,2.39,2.39,0,0,1,1-2.1,4.24,4.24,0,0,1,2.6-.8,7.3,7.3,0,0,1,3.1.7l-.6,1.4a6.88,6.88,0,0,0-2.5-.6,1.7,1.7,0,0,0-1.3.4,1.16,1.16,0,0,0-.4,1,1.45,1.45,0,0,0,.2.7,1.7,1.7,0,0,0,.6.6,11.25,11.25,0,0,0,1.5.7,5.16,5.16,0,0,1,1.7.9,3.92,3.92,0,0,1,.8,1C15.2,49,15.3,49.4,15.3,49.9Z"/><path class="cls-6" d="M25.8,52.8H24V48H19.1v4.8H17.3V42.1h1.8v4.4H24V42.1h1.8Z"/><path class="cls-6" d="M35.7,45.3a3.31,3.31,0,0,1-1.1,2.6,4.77,4.77,0,0,1-3.1.9H30.4v4H28.6V42.1h3.1a5.1,5.1,0,0,1,3,.8A3,3,0,0,1,35.7,45.3Zm-5.3,2h.9a3.44,3.44,0,0,0,2-.5,1.75,1.75,0,0,0,.6-1.5,1.68,1.68,0,0,0-.6-1.4,3,3,0,0,0-1.8-.5H30.3v3.9Z"/></g></svg>