<svg id="Capa_1" data-name="Capa 1" xmlns="http://www.w3.org/2000/svg" viewBox="0 0 43.1 56"><defs><style>.cls-1{fill:#e9e9e0;}.cls-2{fill:#467546;}.cls-3{fill:#d9d7ca;}.cls-4{isolation:isolate;}.cls-5{fill:#fff;}.cls-6{fill:#938c89;}.cls-7,.cls-8{fill:none;stroke:#c8bdb8;stroke-miterlimit:10;}.cls-7{stroke-width:1.51px;}.cls-8{stroke-width:1.54px;}</style></defs><path class="cls-1" d="M30.5,0H1.5C.7,0,0,.7,0,1.9V53.8a1.64,1.64,0,0,0,1.5,1H41.6a1.64,1.64,0,0,0,1.5-1V12.7c0-.7-.1-.9-.3-1.1L31.2.3a1.33,1.33,0,0,0-.7-.3Z"/><path class="cls-2" d="M41.6,56H1.5A1.54,1.54,0,0,1,0,54.5V39H43.1V54.5A1.54,1.54,0,0,1,41.6,56Z"/><polygon class="cls-3" points="31.2 0.3 31.2 11.7 42.9 11.7 31.2 0.3"/><g class="cls-4"><path class="cls-5" d="M13.3,52.8h-2L8.6,48.4,5.9,52.8H4l3.6-5.6L4.3,42H6.2l2.5,4,2.5-4h1.9L9.8,47.2Z"/><path class="cls-5" d="M14.8,52.8V42.1h1.8v9.2h4.5v1.5Z"/><path class="cls-5" d="M29.1,49.9a2.46,2.46,0,0,1-1,2.2,4.65,4.65,0,0,1-2.8.8,6.68,6.68,0,0,1-3-.6V50.6a7.49,7.49,0,0,0,1.6.5,8.87,8.87,0,0,0,1.5.2,2.08,2.08,0,0,0,1.5-.4,1.43,1.43,0,0,0,.5-1.1,1.39,1.39,0,0,0-.5-1,6.17,6.17,0,0,0-1.9-1,4.29,4.29,0,0,1-2.1-1.4,3,3,0,0,1-.6-1.8,2.39,2.39,0,0,1,1-2.1,4.24,4.24,0,0,1,2.6-.8,7.3,7.3,0,0,1,3.1.7l-.6,1.4a6.88,6.88,0,0,0-2.5-.6,1.7,1.7,0,0,0-1.3.4,1.16,1.16,0,0,0-.4,1,1.45,1.45,0,0,0,.2.7,1.7,1.7,0,0,0,.6.6,11.25,11.25,0,0,0,1.5.7,5.16,5.16,0,0,1,1.7.9,3.92,3.92,0,0,1,.8,1C29,49,29.1,49.4,29.1,49.9Z"/><path class="cls-5" d="M39,52.8H37l-2.7-4.4-2.7,4.4H29.7l3.6-5.6L30,42h1.9l2.5,4,2.5-4h1.9l-3.3,5.2Z"/></g><rect class="cls-6" x="9.6" y="14.8" width="7.6" height="16.5"/><rect class="cls-7" x="9" y="14.4" width="24" height="17.2"/><line class="cls-8" x1="9" y1="20.1" x2="33.1" y2="20.1"/><line class="cls-8" x1="9" y1="25.8" x2="33.1" y2="25.8"/><line class="cls-8" x1="17.1" y1="14.4" x2="17.1" y2="31.3"/></svg>