<svg id="Capa_1" data-name="Capa 1" xmlns="http://www.w3.org/2000/svg" viewBox="0 0 43.1 56"><defs><style>.cls-1{fill:#e9e9e0;}.cls-2{fill:#929936;}.cls-3{isolation:isolate;}.cls-4{fill:#fff;}.cls-5{fill:#c8bdb8;}.cls-6{fill:#d9d7ca;}</style></defs><path class="cls-1" d="M30.5,0H1.5C.7,0,0,.7,0,1.9V53.8a1.64,1.64,0,0,0,1.5,1H41.6a1.64,1.64,0,0,0,1.5-1V12.7c0-.7-.1-.9-.3-1.1L31.2.3a1.33,1.33,0,0,0-.7-.3Z"/><path class="cls-2" d="M41.6,56H1.5A1.54,1.54,0,0,1,0,54.5V39H43.1V54.5A1.54,1.54,0,0,1,41.6,56Z"/><g class="cls-3"><path class="cls-4" d="M18.4,53.4H16.7l-2.3-3.8L12,53.4H10.4l3.1-4.8-2.9-4.5h1.7l2.1,3.5,2.1-3.5h1.6l-2.9,4.5Z"/><path class="cls-4" d="M25,50.8a2.2,2.2,0,0,1-.9,1.9,3.73,3.73,0,0,1-2.5.7,6.33,6.33,0,0,1-2.6-.5V51.5a6.32,6.32,0,0,0,2.6.7,2.27,2.27,0,0,0,1.3-.3,1,1,0,0,0,.4-.9,1.22,1.22,0,0,0-.4-.9,15.12,15.12,0,0,0-1.6-.9A4.07,4.07,0,0,1,19.5,48a2.77,2.77,0,0,1-.5-1.6,2.2,2.2,0,0,1,.8-1.8,3.61,3.61,0,0,1,2.2-.7,6.6,6.6,0,0,1,2.7.6l-.5,1.2a6.83,6.83,0,0,0-2.2-.5,1.61,1.61,0,0,0-1.1.3,1.23,1.23,0,0,0-.4.8,1.42,1.42,0,0,0,.2.6c.1.2.3.3.5.5a4,4,0,0,0,1.3.6,5,5,0,0,1,1.5.8,2.7,2.7,0,0,1,.7.8A2.66,2.66,0,0,1,25,50.8Z"/><path class="cls-4" d="M34.4,48.6a4.46,4.46,0,0,1-1.3,3.5,5.31,5.31,0,0,1-3.7,1.2H26.8V44h2.9a4.55,4.55,0,0,1,3.4,1.2A4.76,4.76,0,0,1,34.4,48.6Zm-1.6.1c0-2.2-1-3.3-3.1-3.3H28.4v6.7h1.1C31.6,52.1,32.8,50.9,32.8,48.7Z"/></g><rect class="cls-5" x="19" y="14" width="5.1" height="5.1"/><rect class="cls-5" x="10.2" y="28.2" width="5.1" height="5.1"/><rect class="cls-5" x="19" y="28.2" width="5.1" height="5.1"/><rect class="cls-5" x="27.4" y="28.2" width="5.1" height="5.1"/><polygon class="cls-5" points="13.6 24.1 20.7 24.1 20.7 27.3 22.4 27.3 22.4 24.1 29.1 24.1 29.1 27.1 30.8 27.1 30.8 24.1 30.8 22.9 30.8 22.4 22.4 22.4 22.4 20.1 20.7 20.1 20.7 22.4 11.9 22.4 11.9 22.9 11.9 24.1 11.9 27.3 13.6 27.3 13.6 24.1"/><polygon class="cls-6" points="31.2 0.3 31.2 11.8 42.9 11.8 31.2 0.3"/></svg>